<svg xmlns="http://www.w3.org/2000/svg" viewBox="0 0 4000 3000"><defs><style>.cls-1{fill:#d0d1d2;}.cls-2{fill:#12274a;}.cls-3{fill:#11274a;}.cls-4{fill:#3fb654;}.cls-5{fill:#f47721;}</style></defs><g id="Layer_2" data-name="Layer 2"><path class="cls-1" d="M2180.22,995.9c3.19,4.5,8.14,11.47,14.23,19.92,40,55.45,73.9,98.19,80.74,106.53,53.9,65.68,184,137.57,216.62,155.26l-207,162.19s-99.78-79.27-119.52-98.17c-49.84-47.74-135.63-162.79-121.64-151.52Z"/><path class="cls-2" d="M1197.09,1439.8l189.23-146.54a.84.84,0,0,0,.59-.37c1.79-3.26-31.27-24.45-38.13-29-40.17-26.87-66.72-76.13-77.7-96.51-18.47-34.27-53.61-117.28-31.31-214.12,24.21-105.1,111-204.54,226.94-226.19,106.11-19.82,191.1,34,207,44.07,41.67,26.39,56.58,51.24,131.31,142.65,53.73,65.71,98.5,117,126.21,148.31,55.11,66.23,92.3,112.77,118.09,145.83,17.29,22.17,48.18,62.27,95.1,112.25,6.17,6.58,11.32,11.94,14.76,15.5-3.68-16.1-8.79-33-8.78-51.07,0-43.68,8.83-123.63,44-268.75-2.72-4.19-6.82-10.45-11.92-18-43.09-63.56-81.81-105.71-98.58-124.45-58.73-65.61-62.67-84.46-110.74-140-71.17-82.25-135.43-156.53-239.74-203.46-132.08-59.42-256.06-42.47-299.16-36C1329,509.71,1231.17,560.59,1167.92,608.2,881.46,823.81,948.82,1313.18,1197.09,1439.8Z"/><path class="cls-3" d="M1876.46,2006.77c24.64-38.61,333.53-517.17,489.43-492.27,7,1.12,50.23,9.75,103.87,22.76,68.82,16.7,124.42,33.36,161.24,45.06q-31,26-65.71,52.61-26.82,20.49-52.85,38.92s-118,89.32-229.07,204.87c-52,54.13-23.15,32.4-193.49,239,0,0-15.25,18.5-148,177.85l-103.86-230.49Z"/><path class="cls-4" d="M1443.23,2505c122.39,17.21,217.55-12.48,247.65-22.86,131.84-45.45,207.06-131,223.64-150.63,12.47-14.73,22-27.8,28.47-37.22a234.51,234.51,0,0,0,8.17-37.12c1.43-10.54,4-34.69-2-76-4.91-33.74-12.25-80.9-42.51-132.15a302.82,302.82,0,0,0-30.15-42.3L1808.17,2094a580.8,580.8,0,0,1-63.89,69.78c-9.89,9.17-46.58,43.2-82.81,63.85-95.94,54.68-208.68,27-214.91,25.37C1342.17,2226,1245.18,2136.45,1226.73,2020c-16.88-106.61,39.26-190.09,49.77-205.71,27.53-40.93,52.78-55.14,146.21-127.33,67.17-51.89,119.74-95.23,151.74-122.06,67.73-53.27,115.28-89.16,149-114,15.85-11.68,40.67-29.77,71.72-55.19,17.94-14.69,34.3-28.84,43.11-36.77,22.81-20.55,62.88-60.72,110.7-131.77-17.33-22.31-31.93-40-42-51.93-13.26-15.77-15.36-17.67-39.12-45.53-18.81-22-32.77-38.75-38.42-45.53-13.49-16.18-24.85-30-33.43-40.55-53.28,76.49-106.15,128.32-145.84,162.2-48.06,41-87.11,64.53-182,139.37-44.38,35-78.12,61.86-78.12,61.86-67.21,56.89-86.16,60.31-143,106.83-84.19,68.87-160.21,131.06-210,234-63,130.39-49.52,254.8-44.25,298.05,5.75,47.32,20.95,160.91,106.86,269.44C1223.1,2471.24,1399,2498.8,1443.23,2505Z"/><path class="cls-1" d="M2217.57,2102.1l-151.88,193.5c21.75,28.43,154.75,196.56,384.25,214.47,199.39,15.55,394.7-88.3,505.69-267.12,23.84-45.65,79.67-167.56,59.82-326-15.93-127.08-72.8-215.92-98.95-252.37A548,548,0,0,0,2818.33,1560l-192.07,152.28c25.91,16.72,82.87,58.53,119.29,135.6,10.5,22.23,40.08,87,29.39,172.38-9.14,72.94-42.76,121.63-51.22,133.38a283,283,0,0,1-84.3,77.19c-23.76,14.19-75.2,40.18-144.76,40.21-14.67,0-66.95-1.12-124.85-29.18-44.65-21.64-72.71-49.64-97.11-74A483,483,0,0,1,2217.57,2102.1Z"/><path class="cls-5" d="M2574.33,1390c-.33,10.45-1,33.52,10.67,56.2,22.5,43.54,77.3,59.5,109.55,61.18,85,4.44,150.31-83.28,194.21-142.27,37.48-50.37,116.06-156,124.84-312.72,10.94-195.31-87.25-408.88-272-503.08-45.88-23.4-168.32-78-326.55-56.67-126.92,17.15-215.2,74.89-251.4,101.38A548.79,548.79,0,0,0,2060,693.2l154.14,190.59c16.47-26.08,57.72-83.43,134.44-120.59,22.13-10.72,86.64-40.92,172.09-31.06,73,8.43,122,41.59,133.87,49.93a283.14,283.14,0,0,1,78,83.55C2770,926.91,2773.13,985,2774.19,1010c2.74,64.52-15,112.13-19.88,124.63a287.54,287.54,0,0,1-42,73.42c-42.14,52.42-67.75,43.23-103.83,93C2597.29,1316.52,2575.67,1347.2,2574.33,1390Z"/><circle class="cls-5" cx="2498.21" cy="1013.21" r="145.12"/><circle class="cls-2" cx="1513.66" cy="1987.1" r="142.28"/><path class="cls-2" d="M1537.13,1714.4,1735.61,1560a679.72,679.72,0,0,1,211.28,207.72l-154.37,192.07a564.24,564.24,0,0,0-255.39-245.42Z"/></g></svg>